<?xml version="1.0" encoding="UTF-8" standalone="no"?>
<!-- Created with Inkscape (http://www.inkscape.org/) -->

<svg
   width="27.932697mm"
   height="27.515001mm"
   viewBox="0 0 27.932697 27.515001"
   version="1.1"
   id="svg98928"
   inkscape:version="1.2.2 (732a01da63, 2022-12-09)"
   sodipodi:docname="logo.svg"
   xmlns:inkscape="http://www.inkscape.org/namespaces/inkscape"
   xmlns:sodipodi="http://sodipodi.sourceforge.net/DTD/sodipodi-0.dtd"
   xmlns="http://www.w3.org/2000/svg"
   xmlns:svg="http://www.w3.org/2000/svg">
  <sodipodi:namedview
     id="namedview98930"
     pagecolor="#ffffff"
     bordercolor="#000000"
     borderopacity="0.25"
     inkscape:showpageshadow="2"
     inkscape:pageopacity="0.0"
     inkscape:pagecheckerboard="0"
     inkscape:deskcolor="#d1d1d1"
     inkscape:document-units="mm"
     showgrid="false"
     inkscape:zoom="5.8012346"
     inkscape:cx="82.999574"
     inkscape:cy="51.454565"
     inkscape:window-width="1920"
     inkscape:window-height="1001"
     inkscape:window-x="-9"
     inkscape:window-y="-9"
     inkscape:window-maximized="1"
     inkscape:current-layer="layer1" />
  <defs
     id="defs98925" />
  <g
     inkscape:label="Слой 1"
     inkscape:groupmode="layer"
     id="layer1"
     transform="translate(-73.966082,-135.8371)">
    <path
       style="fill:#112233;stroke-width:0.219731;fill-opacity:1"
       d="m 73.966082,157.86213 v -5.37308 l 1.42259,-0.71123 c 0.78242,-0.39117 1.51893,-0.71123 1.63668,-0.71123 0.13478,0 0.21409,2.25389 0.21409,6.08431 v 6.0843 h -1.63668 -1.63668 z m 6.54693,5.37307 h -1.30935 l 0.003,-10.45394 h -4e-4 l 0.003,-10.45395 5.90467,-3.20809 c 3.24757,-1.76445 5.99594,-3.24128 6.10748,-3.28184 0.12353,-0.0449 0.20281,5.2956 0.20281,13.66204 v 13.73579 h -1.20024 -1.20023 m 4.36429,-13.62748 v -13.62749 l 1.14567,0.83058 c 0.63013,0.45681 1.36355,0.98885 1.62983,1.1823 l 0.48414,0.35173 0.007,12.44518 0.007,12.44518 h -1.63668 -1.63668 z m 5.23738,7.54317 c 0,-3.83042 0.0793,-6.08431 0.21409,-6.08431 0.11775,0 0.85426,0.32006 1.636678,0.71123 l 1.42259,0.71123 v 5.37308 5.37308 h -1.63668 -1.636678 z"
       id="path94779"
       sodipodi:nodetypes="ccssscccccccccscsccccccsccccccssscccccs" />
    <path
       style="fill:#ffffff;fill-opacity:1;stroke:none;stroke-width:0.795759;stroke-dasharray:none;stroke-opacity:1"
       d="m 81.463202,151.11922 0.0267,2.04503 7.41347,-1.75625 -0.0555,-2.41298 z"
       id="path97117"
       sodipodi:nodetypes="ccccc" />
    <path
       style="fill:#ffffff;fill-opacity:1;stroke:none;stroke-width:0.776999;stroke-dasharray:none;stroke-opacity:1"
       d="m 81.633682,154.57254 c -0.11402,8.4147 0.0228,8.68834 0.0228,8.68834 h 1.96115 l -0.0228,-6.95523 3.3271,-0.92161 0.0479,7.96806 2.05237,-0.0228 -0.0223,-10.58223 z"
       id="path97443"
       sodipodi:nodetypes="ccccccccc" />
  </g>
</svg>
