<?xml version="1.0" encoding="UTF-8" standalone="no"?>
<!-- Created with Inkscape (http://www.inkscape.org/) -->

<svg
   width="19.820004mm"
   height="18.937229mm"
   viewBox="0 0 19.820004 18.937229"
   version="1.1"
   id="svg5"
   xml:space="preserve"
   inkscape:version="1.2.2 (732a01da63, 2022-12-09)"
   sodipodi:docname="star.svg"
   xmlns:inkscape="http://www.inkscape.org/namespaces/inkscape"
   xmlns:sodipodi="http://sodipodi.sourceforge.net/DTD/sodipodi-0.dtd"
   xmlns="http://www.w3.org/2000/svg"
   xmlns:svg="http://www.w3.org/2000/svg"><sodipodi:namedview
     id="namedview7"
     pagecolor="#ffffff"
     bordercolor="#000000"
     borderopacity="0.25"
     inkscape:showpageshadow="2"
     inkscape:pageopacity="0.0"
     inkscape:pagecheckerboard="0"
     inkscape:deskcolor="#d1d1d1"
     inkscape:document-units="mm"
     showgrid="false"
     inkscape:zoom="8.2041846"
     inkscape:cx="10.421511"
     inkscape:cy="47.231994"
     inkscape:window-width="1920"
     inkscape:window-height="1001"
     inkscape:window-x="-9"
     inkscape:window-y="-9"
     inkscape:window-maximized="1"
     inkscape:current-layer="layer1" /><defs
     id="defs2" /><g
     inkscape:label="Слой 1"
     inkscape:groupmode="layer"
     id="layer1"
     transform="translate(-51.413825,-117.09648)"><path
       sodipodi:type="star"
       style="fill:#72cbaa;fill-opacity:1;stroke:#ffffff;stroke-width:1.001;stroke-opacity:1"
       id="path234"
       inkscape:flatsided="false"
       sodipodi:sides="5"
       sodipodi:cx="64.398651"
       sodipodi:cy="121.86486"
       sodipodi:r1="9.8794956"
       sodipodi:r2="4.3973637"
       sodipodi:arg1="0.94968002"
       sodipodi:arg2="1.5902366"
       inkscape:rounded="0.06"
       inkscape:randomized="0"
       d="m 70.147958,129.89916 c -0.338415,0.23596 -5.422244,-3.6348 -5.834787,-3.63777 -0.407054,-0.003 -5.454348,3.79974 -5.778956,3.55412 -0.328986,-0.24894 1.781327,-6.28007 1.65667,-6.67334 -0.122998,-0.38804 -5.299253,-4.01321 -5.165961,-4.39783 0.13509,-0.38981 6.523164,-0.24651 6.858665,-0.48659 0.331036,-0.23689 2.179229,-6.28004 2.586216,-6.27213 0.412476,0.008 2.25021,6.12772 2.582218,6.37262 0.32759,0.24163 6.646091,0.13193 6.764331,0.52144 0.119834,0.39477 -5.132458,4.03365 -5.262767,4.42508 -0.128574,0.38623 1.928282,6.36158 1.594371,6.5944 z"
       inkscape:transform-center-x="0.0018324767"
       inkscape:transform-center-y="-1.1829983"
       transform="translate(-3.095981,5.6114656)" /></g></svg>
